<?xml version="1.0" encoding="UTF-8" standalone="no"?>
<svg
   xmlns:dc="http://purl.org/dc/elements/1.1/"
   xmlns:cc="http://creativecommons.org/ns#"
   xmlns:rdf="http://www.w3.org/1999/02/22-rdf-syntax-ns#"
   xmlns:svg="http://www.w3.org/2000/svg"
   xmlns="http://www.w3.org/2000/svg"
   xmlns:sodipodi="http://sodipodi.sourceforge.net/DTD/sodipodi-0.dtd"
   xmlns:inkscape="http://www.inkscape.org/namespaces/inkscape"
   id="Layer_1"
   data-name="Layer 1"
   viewBox="0 0 34.000031 34.000004"
   version="1.1"
   sodipodi:docname="box.svg"
   width="34.000031"
   height="34.000004"
   inkscape:version="0.92.4 (5da689c313, 2019-01-14)">
  <metadata
     id="metadata4866">
    <rdf:RDF>
      <cc:Work
         rdf:about="">
        <dc:format>image/svg+xml</dc:format>
        <dc:type
           rdf:resource="http://purl.org/dc/dcmitype/StillImage" />
        <dc:title>Wondicon - UI (Free)</dc:title>
      </cc:Work>
    </rdf:RDF>
  </metadata>
  <sodipodi:namedview
     pagecolor="#ffffff"
     bordercolor="#666666"
     borderopacity="1"
     objecttolerance="10"
     gridtolerance="10"
     guidetolerance="10"
     inkscape:pageopacity="0"
     inkscape:pageshadow="2"
     inkscape:window-width="751"
     inkscape:window-height="480"
     id="namedview4864"
     showgrid="false"
     fit-margin-top="0"
     fit-margin-left="0"
     fit-margin-right="0"
     fit-margin-bottom="0"
     inkscape:zoom="1.18"
     inkscape:cx="75.705291"
     inkscape:cy="-7.498969"
     inkscape:window-x="0"
     inkscape:window-y="0"
     inkscape:window-maximized="0"
     inkscape:current-layer="Layer_1" />
  <defs
     id="defs4851">
    <style
       id="style4849">.cls-1{fill:#231f20;}</style>
  </defs>
  <title
     id="title4853">Wondicon - UI (Free)</title>
  <path
     class="cls-1"
     d="m 17.000014,34.000003 a 1.1227621,1.1250467 0 0 1 -0.500752,-0.11925 L 0.62565239,25.944673 a 1.1227621,1.1250467 0 0 1 -0.62201,-1.00805 V 9.0622129 a 1.1227621,1.1250467 0 0 1 0.62201,-1.00579 L 16.499262,0.11809287 a 1.1227621,1.1250467 0 0 1 1.001504,0 l 15.87361,7.93833003 a 1.1227621,1.1250467 0 0 1 0.62201,1.00579 V 24.936623 a 1.1227621,1.1250467 0 0 1 -0.62201,1.00805 l -15.87361,7.93608 a 1.1227621,1.1250467 0 0 1 -0.500752,0.11925 z m -14.7508476,-9.75866 14.7508476,7.37581 14.750848,-7.37581 V 9.7687429 l -14.750848,-7.38705 -14.7508476,7.38705 z m 30.6244576,0.69528 z"
     id="path4855"
     inkscape:connector-curvature="0"
     style="fill:#231f20;stroke-width:0.22478077" />
  <path
     class="cls-1"
     d="m 17.000014,18.094093 a 1.1227621,1.1250467 0 0 1 -0.500752,-0.11701 L 0.62789839,10.070263 A 1.1272607,1.1295546 0 1 1 1.6271564,8.0451729 L 17.000014,15.695493 32.372872,8.0451729 a 1.1272607,1.1295546 0 1 1 0.999258,2.0250901 l -15.871364,7.90682 a 1.1227621,1.1250467 0 0 1 -0.500752,0.11701 z"
     id="path4857"
     inkscape:connector-curvature="0"
     style="fill:#231f20;stroke-width:0.22478077" />
  <path
     class="cls-1"
     d="M 24.935697,14.140683 A 1.1227621,1.1250467 0 0 1 24.43719,14.023673 L 8.5635804,6.1168429 a 1.1272581,1.129552 0 1 1 0.999258,-2.02508 L 25.436448,12.018843 a 1.1227621,1.1250467 0 0 1 -0.500751,2.13309 z"
     id="path4859"
     inkscape:connector-curvature="0"
     style="fill:#231f20;stroke-width:0.22478077" />
  <path
     class="cls-1"
     d="m 17.000014,34.000003 a 1.1227621,1.1250467 0 0 1 -1.122762,-1.12505 v -15.90591 a 1.1227621,1.1250467 0 0 1 2.245524,0 v 15.90591 a 1.1227621,1.1250467 0 0 1 -1.122762,1.12505 z"
     id="path4861"
     inkscape:connector-curvature="0"
     style="fill:#231f20;stroke-width:0.22478077" />
</svg>
