<?xml version="1.0" encoding="UTF-8" standalone="no"?>
<svg
   xmlns:dc="http://purl.org/dc/elements/1.1/"
   xmlns:cc="http://creativecommons.org/ns#"
   xmlns:rdf="http://www.w3.org/1999/02/22-rdf-syntax-ns#"
   xmlns:svg="http://www.w3.org/2000/svg"
   xmlns="http://www.w3.org/2000/svg"
   xmlns:sodipodi="http://sodipodi.sourceforge.net/DTD/sodipodi-0.dtd"
   xmlns:inkscape="http://www.inkscape.org/namespaces/inkscape"
   viewBox="0 0 15 20"
   version="1.1"
   id="svg9"
   sodipodi:docname="chel.svg"
   width="15"
   height="20"
   inkscape:version="0.92.4 (5da689c313, 2019-01-14)">
  <metadata
     id="metadata15">
    <rdf:RDF>
      <cc:Work
         rdf:about="">
        <dc:format>image/svg+xml</dc:format>
        <dc:type
           rdf:resource="http://purl.org/dc/dcmitype/StillImage" />
        <dc:title />
      </cc:Work>
    </rdf:RDF>
  </metadata>
  <defs
     id="defs13" />
  <sodipodi:namedview
     pagecolor="#ffffff"
     bordercolor="#666666"
     borderopacity="1"
     objecttolerance="10"
     gridtolerance="10"
     guidetolerance="10"
     inkscape:pageopacity="0"
     inkscape:pageshadow="2"
     inkscape:window-width="1920"
     inkscape:window-height="1028"
     id="namedview11"
     showgrid="false"
     fit-margin-top="0"
     fit-margin-left="0"
     fit-margin-right="0"
     fit-margin-bottom="0"
     inkscape:zoom="7.375"
     inkscape:cx="-13.903167"
     inkscape:cy="12.5"
     inkscape:window-x="-8"
     inkscape:window-y="-8"
     inkscape:window-maximized="1"
     inkscape:current-layer="svg9" />
  <g
     data-name="Layer 2"
     id="Layer_2"
     transform="matrix(0.71540225,0,0,0.76923077,-3.932128,-1.9230769)"
     style="fill:#ffffff;fill-opacity:1">
    <path
       d="M 16,17.5 A 7.5,7.5 0 1 1 23.5,10 7.5,7.5 0 0 1 16,17.5 Z m 0,-14 A 6.5,6.5 0 1 0 22.5,10 6.51,6.51 0 0 0 16,3.5 Z"
       id="path4"
       inkscape:connector-curvature="0"
       style="fill:#ffffff;fill-opacity:1" />
    <path
       d="M 26,28.5 H 6 A 0.5,0.5 0 0 1 5.5,28 v -6 a 0.68,0.68 0 0 1 0,-0.14 c 0.48,-1.66 2,-2.81 3.4,-3.82 0.33,-0.25 0.64,-0.48 0.93,-0.72 a 0.51,0.51 0 0 1 0.68,0.05 7.17,7.17 0 0 0 5.49,2.13 7.11,7.11 0 0 0 5.45,-2.13 0.51,0.51 0 0 1 0.68,-0.05 c 0.29,0.24 0.6,0.47 0.93,0.71 1.37,1 2.92,2.17 3.4,3.83 a 0.68,0.68 0 0 1 0,0.14 v 6 A 0.5,0.5 0 0 1 26,28.5 Z m -19.5,-1 h 19 v -5.43 c -0.41,-1.3 -1.79,-2.33 -3,-3.23 L 21.89,18.38 A 8.24,8.24 0 0 1 16,20.5 8.29,8.29 0 0 1 10.11,18.38 l -0.62,0.46 c -1.22,0.9 -2.6,1.93 -3,3.23 z"
       id="path6"
       inkscape:connector-curvature="0"
       style="fill:#ffffff;fill-opacity:1" />
  </g>
</svg>
