<?xml version="1.0" encoding="UTF-8" standalone="no"?>
<svg
   xmlns:dc="http://purl.org/dc/elements/1.1/"
   xmlns:cc="http://creativecommons.org/ns#"
   xmlns:rdf="http://www.w3.org/1999/02/22-rdf-syntax-ns#"
   xmlns:svg="http://www.w3.org/2000/svg"
   xmlns="http://www.w3.org/2000/svg"
   xmlns:sodipodi="http://sodipodi.sourceforge.net/DTD/sodipodi-0.dtd"
   xmlns:inkscape="http://www.inkscape.org/namespaces/inkscape"
   enable-background="new 0 0 512 512"
   id="Layer_1"
   version="1.1"
   viewBox="0 0 14.000001 13.999998"
   xml:space="preserve"
   sodipodi:docname="FB.svg"
   width="14.000001"
   height="13.999998"
   inkscape:version="0.92.4 (5da689c313, 2019-01-14)"><metadata
     id="metadata11"><rdf:RDF><cc:Work
         rdf:about=""><dc:format>image/svg+xml</dc:format><dc:type
           rdf:resource="http://purl.org/dc/dcmitype/StillImage" /><dc:title /></cc:Work></rdf:RDF></metadata><defs
     id="defs9" /><sodipodi:namedview
     pagecolor="#ffffff"
     bordercolor="#666666"
     borderopacity="1"
     objecttolerance="10"
     gridtolerance="10"
     guidetolerance="10"
     inkscape:pageopacity="0"
     inkscape:pageshadow="2"
     inkscape:window-width="1345"
     inkscape:window-height="745"
     id="namedview7"
     showgrid="false"
     fit-margin-top="0"
     fit-margin-left="0"
     fit-margin-right="0"
     fit-margin-bottom="0"
     inkscape:zoom="10.429825"
     inkscape:cx="4.7295776"
     inkscape:cy="-4.1975901"
     inkscape:window-x="0"
     inkscape:window-y="0"
     inkscape:window-maximized="0"
     inkscape:current-layer="Layer_1" /><g
     id="g4"
     transform="matrix(0.0545809,0,0,0.02777074,-7.3465891,-0.13546607)"
     style="fill:#ffffff;fill-opacity:1"><path
       d="m 304,383 c 0,40.2 -0.1,80.3 0.1,120.5 0,4.4 -1.2,5.6 -5.6,5.5 -34.2,-0.2 -68.3,-0.2 -102.5,0 -4.7,0 -6.2,-1.1 -6.2,-6 0.2,-79.7 0.1,-159.3 0.1,-239 0,-8 0.9,-7 -7.3,-7.1 -14.5,0 -29,-0.1 -43.5,0.1 -3.5,0 -4.5,-1.1 -4.5,-4.6 0.1,-25.3 0.1,-50.7 0,-76 0,-3.5 1,-4.6 4.5,-4.5 15.2,0.2 30.3,-0.1 45.5,0.2 4.1,0.1 5.4,-1 5.4,-5.3 -0.2,-21.3 0,-42.7 -0.1,-64 -0.1,-17.7 2.6,-34.8 11.5,-50.4 9.6,-17 24,-28.7 41.8,-36.3 15,-6.4 30.8,-9.4 47,-10.3 32.1,-1.8 64.3,-0.3 96.4,-0.9 3.6,-0.1 4.5,1.2 4.5,4.6 -0.1,26.3 -0.1,52.7 0,79 0,4 -1.5,4.6 -5,4.6 -18.5,-0.1 -37,-0.1 -55.5,-0.1 -15.4,0 -26.5,11.1 -26.5,26.3 0,15.7 0.2,31.3 -0.1,47 -0.1,4.5 1.4,5.6 5.7,5.6 25.3,-0.2 50.7,0 76,-0.2 4.2,0 5.6,1.2 5.1,5.4 -1.5,12.9 -2.8,25.8 -4.2,38.7 -1.3,12.4 -3.5,24.7 -5.5,37 -0.6,3.5 -1.7,4.3 -4.9,4.3 -21.7,-0.1 -43.3,-0.1 -65,0 -8.5,0 -7.3,-1.1 -7.3,7.5 0.1,39.4 0.1,78.9 0.1,118.4 z"
       id="path2"
       inkscape:connector-curvature="0"
       style="fill:#ffffff;fill-opacity:1" /></g></svg>