<?xml version="1.0" encoding="UTF-8" standalone="no"?>
<svg
   xmlns:osb="http://www.openswatchbook.org/uri/2009/osb"
   xmlns:dc="http://purl.org/dc/elements/1.1/"
   xmlns:cc="http://creativecommons.org/ns#"
   xmlns:rdf="http://www.w3.org/1999/02/22-rdf-syntax-ns#"
   xmlns:svg="http://www.w3.org/2000/svg"
   xmlns="http://www.w3.org/2000/svg"
   xmlns:sodipodi="http://sodipodi.sourceforge.net/DTD/sodipodi-0.dtd"
   xmlns:inkscape="http://www.inkscape.org/namespaces/inkscape"
   height="24"
   version="1.1"
   viewBox="0 0 24 24"
   width="24"
   id="svg11"
   sodipodi:docname="inst_big.svg"
   inkscape:version="0.92.4 (5da689c313, 2019-01-14)">
  <metadata
     id="metadata15">
    <rdf:RDF>
      <cc:Work
         rdf:about="">
        <dc:format>image/svg+xml</dc:format>
        <dc:type
           rdf:resource="http://purl.org/dc/dcmitype/StillImage" />
        <dc:title />
      </cc:Work>
    </rdf:RDF>
  </metadata>
  <sodipodi:namedview
     pagecolor="#ffffff"
     bordercolor="#666666"
     borderopacity="1"
     objecttolerance="10"
     gridtolerance="10"
     guidetolerance="10"
     inkscape:pageopacity="0"
     inkscape:pageshadow="2"
     inkscape:window-width="1455"
     inkscape:window-height="859"
     id="namedview13"
     showgrid="false"
     inkscape:lockguides="true"
     showguides="false"
     inkscape:zoom="3.9333333"
     inkscape:cx="-148.6017"
     inkscape:cy="-16.271188"
     inkscape:window-x="0"
     inkscape:window-y="0"
     inkscape:window-maximized="0"
     inkscape:current-layer="svg11"
     fit-margin-top="0"
     fit-margin-left="0"
     fit-margin-right="0"
     fit-margin-bottom="0" />
  <desc
     id="desc4" />
  <defs
     id="defs6">
    <linearGradient
       id="linearGradient825"
       osb:paint="solid">
      <stop
         style="stop-color:#000000;stop-opacity:1;"
         offset="0"
         id="stop823" />
    </linearGradient>
  </defs>
  <g
     id="People"
     transform="scale(0.4)"
     style="fill:#000000;fill-opacity:1;fill-rule:evenodd;stroke:none;stroke-width:1;stroke-opacity:1">
    <g
       id="Icon-56"
       style="fill:#000000;fill-opacity:1;stroke:none;stroke-opacity:1">
      <path
         d="m 30,40 c -5.514,0 -10,-4.486 -10,-10 0,-5.514 4.486,-10 10,-10 5.514,0 10,4.486 10,10 0,5.514 -4.486,10 -10,10 z m 0,-22 c -6.617,0 -12,5.383 -12,12 0,6.617 5.383,12 12,12 6.617,0 12,-5.383 12,-12 0,-6.617 -5.383,-12 -12,-12 z m 16,-4 h 6 V 8 h -6 z m -1,2 h 8 c 0.552,0 1,-0.447 1,-1 V 7 C 54,6.447 53.552,6 53,6 h -8 c -0.552,0 -1,0.447 -1,1 v 8 c 0,0.553 0.448,1 1,1 z M 55,58 H 5 C 3.346,58 2,56.654 2,55 V 24 H 15.178 C 14.424,25.855 14,27.878 14,30 c 0,8.822 7.178,16 16,16 8.822,0 16,-7.178 16,-16 0,-1.077 -0.108,-2.154 -0.321,-3.199 -0.11,-0.542 -0.637,-0.89 -1.179,-0.78 -0.542,0.109 -0.891,0.637 -0.781,1.178 C 43.906,28.114 44,29.057 44,30 44,37.72 37.72,44 30,44 22.28,44 16,37.72 16,30 c 0,-7.72 6.28,-14 14,-14 5.204,0 9.948,2.859 12.383,7.464 0.023,0.043 0.06,0.07 0.088,0.108 0.042,0.059 0.081,0.116 0.134,0.164 0.045,0.039 0.094,0.067 0.144,0.097 0.06,0.038 0.118,0.075 0.186,0.1 0.055,0.019 0.113,0.024 0.171,0.034 C 43.162,23.977 43.212,24 43.27,24 H 58 v 31 c 0,1.654 -1.346,3 -3,3 z M 5,2 h 1 v 17 c 0,0.553 0.448,1 1,1 0.552,0 1,-0.447 1,-1 V 2 h 2 v 17 c 0,0.553 0.448,1 1,1 0.552,0 1,-0.447 1,-1 V 2 h 2 v 17 c 0,0.553 0.448,1 1,1 0.552,0 1,-0.447 1,-1 V 2 h 39 c 1.654,0 3,1.346 3,3 V 22 H 43.848 C 40.989,17.053 35.743,14 30,14 24.093,14 18.937,17.226 16.165,22 H 2 V 5 C 2,3.346 3.346,2 5,2 Z M 55,0 H 5 C 2.243,0 0,2.243 0,5 v 50 c 0,2.757 2.243,5 5,5 h 50 c 2.757,0 5,-2.243 5,-5 V 5 C 60,2.243 57.757,0 55,0 Z"
         id="social-instagram"
         inkscape:connector-curvature="0"
         style="fill:#000000;fill-opacity:1;stroke:none;stroke-opacity:1" />
    </g>
  </g>
</svg>
