<?xml version="1.0" encoding="UTF-8" standalone="no"?>
<svg
   xmlns:dc="http://purl.org/dc/elements/1.1/"
   xmlns:cc="http://creativecommons.org/ns#"
   xmlns:rdf="http://www.w3.org/1999/02/22-rdf-syntax-ns#"
   xmlns:svg="http://www.w3.org/2000/svg"
   xmlns="http://www.w3.org/2000/svg"
   xmlns:sodipodi="http://sodipodi.sourceforge.net/DTD/sodipodi-0.dtd"
   xmlns:inkscape="http://www.inkscape.org/namespaces/inkscape"
   version="1.1"
   viewBox="0 0 19 17.999998"
   enable-background="new 0 0 512 512"
   id="svg8"
   sodipodi:docname="loupe.svg"
   width="19"
   height="17.999998"
   inkscape:version="0.92.4 (5da689c313, 2019-01-14)">
  <metadata
     id="metadata14">
    <rdf:RDF>
      <cc:Work
         rdf:about="">
        <dc:format>image/svg+xml</dc:format>
        <dc:type
           rdf:resource="http://purl.org/dc/dcmitype/StillImage" />
        <dc:title />
      </cc:Work>
    </rdf:RDF>
  </metadata>
  <defs
     id="defs12" />
  <sodipodi:namedview
     pagecolor="#ffffff"
     bordercolor="#666666"
     borderopacity="1"
     objecttolerance="10"
     gridtolerance="10"
     guidetolerance="10"
     inkscape:pageopacity="0"
     inkscape:pageshadow="2"
     inkscape:window-width="751"
     inkscape:window-height="480"
     id="namedview10"
     showgrid="false"
     fit-margin-top="0"
     fit-margin-left="0"
     fit-margin-right="0"
     fit-margin-bottom="0"
     inkscape:zoom="7.375"
     inkscape:cx="15.066761"
     inkscape:cy="0.2999938"
     inkscape:window-x="0"
     inkscape:window-y="0"
     inkscape:window-maximized="0"
     inkscape:current-layer="svg8" />
  <g
     id="g6"
     transform="matrix(0.03877551,0,0,0.03673469,-0.43040816,-0.40040812)"
     style="fill:#ffffff;fill-opacity:1">
    <g
       id="g4"
       style="fill:#ffffff;fill-opacity:1">
      <path
         d="m 304.7,10.9 c -108.5,0 -196.4,87.9 -196.4,196.4 0,46.9 16.4,89.9 43.8,123.7 l -135,135 c -8,8 -8,20.9 0,28.9 8,8 20.9,8 28.9,0 l 135,-135 c 33.8,27.4 76.8,43.8 123.7,43.8 108.5,0 196.4,-87.9 196.4,-196.4 0,-108.5 -88,-196.4 -196.4,-196.4 z m 0,352 c -85.9,0 -155.6,-69.7 -155.6,-155.6 0,-85.9 69.7,-155.6 155.6,-155.6 85.9,0 155.6,69.7 155.6,155.6 0,85.9 -69.7,155.6 -155.6,155.6 z"
         id="path2"
         inkscape:connector-curvature="0"
         style="fill:#ffffff;fill-opacity:1" />
    </g>
  </g>
</svg>
