<?xml version="1.0" encoding="UTF-8" standalone="no"?>
<svg
   xmlns:dc="http://purl.org/dc/elements/1.1/"
   xmlns:cc="http://creativecommons.org/ns#"
   xmlns:rdf="http://www.w3.org/1999/02/22-rdf-syntax-ns#"
   xmlns:svg="http://www.w3.org/2000/svg"
   xmlns="http://www.w3.org/2000/svg"
   xmlns:sodipodi="http://sodipodi.sourceforge.net/DTD/sodipodi-0.dtd"
   xmlns:inkscape="http://www.inkscape.org/namespaces/inkscape"
   enable-background="new 0 0 800 800"
   height="22"
   id="Layer_1"
   version="1.1"
   viewBox="0 0 16.999998 22"
   width="16.999998"
   xml:space="preserve"
   sodipodi:docname="store.svg"
   inkscape:version="0.92.4 (5da689c313, 2019-01-14)"><metadata
     id="metadata13"><rdf:RDF><cc:Work
         rdf:about=""><dc:format>image/svg+xml</dc:format><dc:type
           rdf:resource="http://purl.org/dc/dcmitype/StillImage" /><dc:title /></cc:Work></rdf:RDF></metadata><defs
     id="defs11" /><sodipodi:namedview
     pagecolor="#ffffff"
     bordercolor="#666666"
     borderopacity="1"
     objecttolerance="10"
     gridtolerance="10"
     guidetolerance="10"
     inkscape:pageopacity="0"
     inkscape:pageshadow="2"
     inkscape:window-width="751"
     inkscape:window-height="480"
     id="namedview9"
     showgrid="false"
     fit-margin-top="0"
     fit-margin-left="0"
     fit-margin-right="0"
     fit-margin-bottom="0"
     inkscape:zoom="3.337544"
     inkscape:cx="3.0141178"
     inkscape:cy="16.538756"
     inkscape:window-x="0"
     inkscape:window-y="0"
     inkscape:window-maximized="0"
     inkscape:current-layer="Layer_1" /><g
     id="g6"
     transform="matrix(0.02863886,0,0,0.03259158,-2.9555304,-2.0366478)"
     style="fill:#ffffff;fill-opacity:1"><path
       d="m 696.384,238.688 c -0.649,-8.429 -7.672,-14.927 -16.118,-14.927 H 119.751 c -8.392,0 -15.377,6.407 -16.099,14.782 -0.253,2.852 -0.452,5.721 -0.452,8.645 v 387.063 c 0,56.945 46.332,103.26 103.259,103.26 h 387.082 c 56.926,0 103.258,-46.314 103.258,-103.26 V 247.188 c 0,-2.869 -0.198,-5.703 -0.415,-8.5 z m -31.929,395.563 c 0,39.113 -31.821,70.916 -70.914,70.916 H 206.459 c -39.094,0 -70.915,-31.803 -70.915,-70.916 V 256.104 h 528.911 z"
       id="path2"
       inkscape:connector-curvature="0"
       style="fill:#ffffff;fill-opacity:1" /><path
       d="m 298.456,205.296 c 0.27,0 0.542,0 0.793,-0.018 8.934,-0.433 15.811,-8.014 15.378,-16.93 -1.75,-36.279 12.002,-65.085 38.751,-81.113 27.884,-16.714 65.391,-16.714 93.278,0 26.729,16.009 40.501,44.815 38.733,81.113 -0.415,8.916 6.462,16.497 15.377,16.93 8.79,0.343 16.497,-6.443 16.931,-15.377 2.328,-48.047 -17.508,-88.296 -54.419,-110.425 -37.848,-22.651 -88.674,-22.651 -126.523,0.018 -36.928,22.11 -56.764,62.359 -54.436,110.407 0.416,8.663 7.564,15.395 16.137,15.395 z"
       id="path4"
       inkscape:connector-curvature="0"
       style="fill:#ffffff;fill-opacity:1" /></g></svg>