<?xml version="1.0" encoding="UTF-8" standalone="no"?>
<svg
   xmlns:dc="http://purl.org/dc/elements/1.1/"
   xmlns:cc="http://creativecommons.org/ns#"
   xmlns:rdf="http://www.w3.org/1999/02/22-rdf-syntax-ns#"
   xmlns:svg="http://www.w3.org/2000/svg"
   xmlns="http://www.w3.org/2000/svg"
   xmlns:sodipodi="http://sodipodi.sourceforge.net/DTD/sodipodi-0.dtd"
   xmlns:inkscape="http://www.inkscape.org/namespaces/inkscape"
   enable-background="new 0 0 100 100"
   height="14"
   version="1.1"
   viewBox="0 0 14 14"
   width="14"
   xml:space="preserve"
   id="svg6"
   sodipodi:docname="tw.svg"
   inkscape:version="0.92.4 (5da689c313, 2019-01-14)"><metadata
     id="metadata12"><rdf:RDF><cc:Work
         rdf:about=""><dc:format>image/svg+xml</dc:format><dc:type
           rdf:resource="http://purl.org/dc/dcmitype/StillImage" /><dc:title></dc:title></cc:Work></rdf:RDF></metadata><defs
     id="defs10" /><sodipodi:namedview
     pagecolor="#ffffff"
     bordercolor="#666666"
     borderopacity="1"
     objecttolerance="10"
     gridtolerance="10"
     guidetolerance="10"
     inkscape:pageopacity="0"
     inkscape:pageshadow="2"
     inkscape:window-width="1244"
     inkscape:window-height="781"
     id="namedview8"
     showgrid="false"
     fit-margin-top="0"
     fit-margin-left="0"
     fit-margin-right="0"
     fit-margin-bottom="0"
     inkscape:zoom="2.36"
     inkscape:cx="21.731746"
     inkscape:cy="24.009784"
     inkscape:window-x="0"
     inkscape:window-y="0"
     inkscape:window-maximized="0"
     inkscape:current-layer="svg6" /><g
     id="color_x5F_fill"
     transform="matrix(0.24015782,0,0,0.29157267,-5.008011,-7.5792302)"
     style="fill:#ffffff;fill-opacity:1"><path
       d="m 77.245,34.5 c -1.132,1.066 -2.543,2.983 -3.989,3.584 0.278,1.314 -0.001,2.837 -0.265,4.152 -0.301,1.498 -0.059,3.134 -0.519,4.583 -0.487,1.538 -0.632,3.132 -1.146,4.665 -0.595,1.771 -1.646,3.622 -2.67,5.163 -0.887,1.334 -1.495,2.759 -2.349,4.08 -0.982,1.521 -2.335,2.477 -3.483,3.759 -1.72,1.918 -4.117,3.51 -6.333,5.001 -1.833,1.234 -3.973,1.771 -5.981,2.685 -0.787,0.359 -1.741,0.655 -2.602,0.876 -0.775,0.2 -2.084,0.688 -2.917,0.688 l -1.5,0.258 c -0.607,0.056 -2.129,-0.059 -2.917,-0.008 -0.787,0.052 -1.544,-0.168 -2.351,-0.166 -1.976,0.004 -3.956,-0.06 -5.901,-0.315 -3.389,-0.446 -7.294,-1.964 -10.083,-3.955 -0.503,-0.359 -0.886,-0.866 -1.386,-1.233 2.923,0.686 6.608,0.577 9.392,-0.668 1.543,-0.69 3.295,-0.996 4.68,-1.973 1.064,-0.751 2.31,-1.56 3.394,-2.17 -2.501,-0.234 -4.81,-0.963 -7.081,-2.163 -1.12,-0.591 -4.079,-3.856 -4.066,-6.344 1.737,-0.032 3.302,0.202 5.063,-0.031 -1.243,-0.331 -2.276,-0.872 -3.414,-1.629 -1.281,-0.853 -2.354,-1.484 -3.681,-2.932 -1.559,-1.7 -2.062,-4.967 -1.886,-7.326 0.805,0.08 1.476,0.592 2.256,0.824 0.808,0.239 1.764,0.207 2.533,0.588 -2.558,-0.833 -3.873,-4.916 -4.533,-7.191 -0.769,-2.648 0.863,-8.649 0.917,-8.805 1.994,1.516 3.455,3.8 5.461,5.181 1.16,0.8 2.479,1.682 3.604,2.476 0.57,0.402 1.001,0.589 1.581,1.021 0.504,0.374 1.274,0.642 1.836,0.894 1.445,0.65 3.246,1.359 4.833,1.65 1.863,0.342 3.834,0.415 5.583,1.019 l 2.084,0.25 c -0.577,-2.281 -0.262,-5.318 0.437,-7.662 0.808,-2.711 3.567,-5.023 6.043,-6.191 2.309,-1.09 6.114,-1.58 8.521,-0.65 1.231,0.475 2.505,1.035 3.649,1.673 1.066,0.594 1.589,1.965 2.767,1.812 2.072,-0.268 5.249,-1.551 6.504,-3.369 -0.051,3.205 -1.94,5.092 -4.331,7.038 1.956,-0.571 4.282,-0.736 6.149,-1.561 -0.504,1.002 -1.082,1.648 -1.903,2.422 z"
       id="path2"
       inkscape:connector-curvature="0"
       style="fill:#ffffff;fill-opacity:1" /></g><g
     id="offset_x5F_print_x5F_outline"
     transform="translate(-20.853,-60.009784)" /></svg>